<svg width="72" height="72" viewBox="0 0 72 72" fill="none" xmlns="http://www.w3.org/2000/svg">
<path opacity="0.12" d="M45 25.8C45 24.1198 45 23.2798 44.673 22.638C44.3854 22.0735 43.9265 21.6146 43.362 21.327C42.7202 21 41.8802 21 40.2 21L31.8 21C30.1198 21 29.2798 21 28.638 21.327C28.0735 21.6146 27.6146 22.0735 27.327 22.638C27 23.2798 27 24.1198 27 25.8L27 63H45L45 25.8Z" fill="#2A67F4"/>
<path d="M27 36H13.8C12.1198 36 11.2798 36 10.638 36.327C10.0735 36.6146 9.6146 37.0735 9.32698 37.638C9 38.2798 9 39.1198 9 40.8V58.2C9 59.8802 9 60.7202 9.32698 61.362C9.6146 61.9265 10.0735 62.3854 10.638 62.673C11.2798 63 12.1198 63 13.8 63H27M27 63H45M27 63L27 25.8C27 24.1198 27 23.2798 27.327 22.638C27.6146 22.0735 28.0735 21.6146 28.638 21.327C29.2798 21 30.1198 21 31.8 21H40.2C41.8802 21 42.7202 21 43.362 21.327C43.9265 21.6146 44.3854 22.0735 44.673 22.638C45 23.2798 45 24.1198 45 25.8V63M45 63H58.2C59.8802 63 60.7202 63 61.362 62.673C61.9265 62.3854 62.3854 61.9265 62.673 61.362C63 60.7202 63 59.8802 63 58.2V13.8C63 12.1198 63 11.2798 62.673 10.638C62.3854 10.0735 61.9265 9.6146 61.362 9.32698C60.7202 9 59.8802 9 58.2 9H49.8C48.1198 9 47.2798 9 46.638 9.32698C46.0735 9.6146 45.6146 10.0735 45.327 10.638C45 11.2798 45 12.1198 45 13.8V24" stroke="#2A67F4" stroke-width="4" stroke-linecap="round" stroke-linejoin="round"/>
</svg>
