<svg width="64" height="64" viewBox="0 0 64 64" fill="none" xmlns="http://www.w3.org/2000/svg">
<path opacity="0.12" d="M34.667 5.3335L10.9162 33.8344C9.98601 34.9506 9.52093 35.5087 9.51382 35.9801C9.50765 36.3898 9.69023 36.7796 10.009 37.0372C10.3756 37.3335 11.1021 37.3335 12.555 37.3335H32.0003L29.3336 58.6668L53.0844 30.1659C54.0146 29.0497 54.4796 28.4916 54.4867 28.0203C54.4929 27.6105 54.3103 27.2207 53.9916 26.9631C53.625 26.6668 52.8985 26.6668 51.4455 26.6668H32.0003L34.667 5.3335Z" fill="#2A67F4"/>
<path d="M34.6667 5.3335L10.9159 33.8344C9.98573 34.9506 9.52066 35.5087 9.51355 35.9801C9.50737 36.3898 9.68996 36.7796 10.0087 37.0372C10.3753 37.3335 11.1018 37.3335 12.5548 37.3335H32L29.3333 58.6668L53.0841 30.1659C54.0143 29.0497 54.4794 28.4916 54.4865 28.0203C54.4927 27.6105 54.3101 27.2207 53.9913 26.9631C53.6247 26.6668 52.8982 26.6668 51.4453 26.6668H32L34.6667 5.3335Z" stroke="#2A67F4" stroke-width="4" stroke-linecap="round" stroke-linejoin="round"/>
</svg>
