<svg width="72" height="72" viewBox="0 0 72 72" fill="none" xmlns="http://www.w3.org/2000/svg">
<g opacity="0.12">
<path d="M57 6L48 15V24H57L66 15L60 12L57 6Z" fill="#2A67F4"/>
<path d="M36 51C44.2843 51 51 44.2843 51 36C51 27.7157 44.2843 21 36 21C27.7157 21 21 27.7157 21 36C21 44.2843 27.7157 51 36 51Z" fill="#2A67F4"/>
</g>
<path d="M47.9999 24V15L56.9999 6L59.9999 12L65.9999 15L56.9999 24H47.9999ZM47.9999 24L35.9999 35.9998M66 36C66 52.5685 52.5685 66 36 66C19.4315 66 6 52.5685 6 36C6 19.4315 19.4315 6 36 6M51 36C51 44.2843 44.2843 51 36 51C27.7157 51 21 44.2843 21 36C21 27.7157 27.7157 21 36 21" stroke="#2A67F4" stroke-width="4" stroke-linecap="round" stroke-linejoin="round"/>
</svg>
